<mxfile host="app.diagrams.net" modified="2024-03-30T13:16:52.484Z" agent="Mozilla/5.0 (Windows NT 10.0; Win64; x64; rv:124.0) Gecko/20100101 Firefox/124.0" version="24.2.1" etag="yz8DygQAb2dZm86XKTv8" type="github">
  <diagram name="Page-1" id="GIUYQ9TQFDNkRuZ9gcC6">
    <mxGraphModel>
      <root>
        <mxCell id="0" />
        <mxCell id="1" parent="0" />
      </root>
    </mxGraphModel>
  </diagram>
</mxfile>
